<?xml version="1.0" encoding="utf-8"?>
<!DOCTYPE svg PUBLIC "-//W3C//DTD SVG 1.0//EN" "http://www.w3.org/TR/2001/REC-SVG-20010904/DTD/svg10.dtd">
<svg version="1.0" xmlns="http://www.w3.org/2000/svg" width="256px" height="256px" viewBox="0 0 256 256" preserveAspectRatio="xMidYMid meet">
 <g fill="#ffffff">
  <path d="M0 128 l0 -128 46.75 0 46.75 0 0 1.25 c0 1 -0.35 1.30 -2.10 1.80 -10.10 2.65 -18.60 12.55 -20.55 23.85 -1.75 9.90 5.95 23.35 16.20 28.25 4.85 2.35 8.20 3.05 13.20 2.70 7 -0.45 12.80 -3.25 18.05 -8.65 5.40 -5.55 8.30 -12.20 8.35 -19.20 0.05 -7.05 -2.60 -13.10 -8.35 -19.35 -3.40 -3.65 -7.95 -6.50 -12.15 -7.60 -1.80 -0.50 -2.15 -0.80 -2.15 -1.80 l0 -1.25 76 0 76 0 0 128 0 128 -79.50 0 -79.50 0 0 -1.25 c0 -1.05 0.25 -1.25 1.65 -1.25 2.25 -0.05 9.45 -1.65 14.05 -3.20 12.45 -4.20 27.35 -15.25 35.70 -26.55 2.90 -3.95 7 -11.55 8.85 -16.45 l1.25 -3.30 -13.20 0 -13.20 0 -2 3.40 c-5.95 9.90 -17.40 18 -29.35 20.65 -1.95 0.45 -6.10 0.70 -11.75 0.65 -7.30 0 -9.40 -0.20 -12.65 -1.10 -8.40 -2.30 -16 -6.80 -21.90 -12.95 -4.05 -4.20 -6 -7.05 -8.45 -12.30 -3.05 -6.50 -4.05 -10.65 -4.35 -18.40 -0.65 -15.20 3.30 -26.50 12.65 -36.40 5.05 -5.40 14.20 -10.95 21.15 -12.85 1.70 -0.50 3.05 -1.10 3.05 -1.40 0 -0.70 -3.95 -21.75 -4.30 -22.90 -0.20 -0.70 -0.50 -0.75 -2.70 -0.15 -7.55 2 -18.95 7.60 -25.55 12.50 -8.30 6.20 -17.15 16.75 -21.70 25.75 -5.65 11.25 -8.80 25.25 -8.05 36 2.05 29.30 21.60 55.30 49.35 65.55 4.20 1.50 12.75 3.45 15.40 3.45 1.30 0 1.55 0.20 1.55 1.25 l0 1.25 -41.25 0 -41.25 0 0 -128z m239.35 115.90 c-0.15 -0.65 -3.60 -21.10 -7.65 -45.50 l-7.35 -44.40 -48.05 -0.10 -48.05 -0.15 -2.10 -12.25 c-1.15 -6.75 -2.25 -13.75 -2.45 -15.60 l-0.35 -3.40 32.45 0 32.45 0 1.80 -2.85 c6.15 -9.75 11.40 -18.15 12.40 -19.80 l1.15 -1.90 -42.05 0.10 c-23.15 0.05 -42.15 0 -42.25 -0.10 -0.10 -0.10 -1.10 -5.70 -2.25 -12.45 -1.15 -6.75 -2.20 -12.90 -2.35 -13.70 l-0.30 -1.40 -11.90 0.20 c-6.55 0.10 -12.10 0.30 -12.25 0.50 -0.20 0.15 3.70 24.40 8.60 53.85 l8.90 53.55 48 0.10 48 0.15 2.80 16.75 c1.55 9.20 3.95 23.95 5.40 32.75 1.45 8.80 2.75 16.15 2.85 16.35 0.15 0.25 5.80 0.40 12.55 0.40 l12.25 0 -0.25 -1.10z"/>
 </g>
 <g fill="#dd5655">
  <path d="M81 255.55 c-0.40 -0.25 -3.10 -0.80 -5.95 -1.25 -20.90 -3.25 -41.40 -18.55 -52 -38.85 -11.15 -21.25 -11.25 -46.70 -0.30 -68.45 4.55 -9.05 13.40 -19.55 21.70 -25.75 7.05 -5.25 19.15 -11.05 26.55 -12.70 1.50 -0.35 3.10 -0.75 3.60 -0.85 0.60 -0.20 0.90 0.30 1.30 2.15 1 4.50 4.60 24.05 4.60 24.75 0 0.50 -0.95 0.95 -2.70 1.35 -3.30 0.75 -10.85 4.35 -15.35 7.35 -3.75 2.50 -9.25 8.05 -11.65 11.85 -5.75 9 -8.25 18.40 -7.65 28.80 0.35 6.15 1.60 11.10 4.35 16.90 2.45 5.25 4.40 8.10 8.45 12.30 5.90 6.15 13.55 10.65 21.90 12.95 4.75 1.30 16.55 1.55 21.40 0.45 11.85 -2.60 23.40 -10.75 29.35 -20.65 l2 -3.35 14.80 -0.15 c8.15 -0.10 15.05 0 15.25 0.15 0.55 0.40 -2.75 8.85 -5.70 14.45 -3.40 6.55 -6.65 10.80 -13.15 17.20 -8.05 7.95 -18.25 14.45 -27.60 17.60 -4.60 1.55 -11.80 3.15 -14.05 3.20 -0.90 0 -1.65 0.25 -1.65 0.50 0 0.60 -16.40 0.65 -17.50 0.05z"/>
  <path d="M213.50 246.25 c-0.25 -0.30 -1.60 -7.70 -3.05 -16.50 -1.45 -8.80 -3.85 -23.55 -5.40 -32.75 l-2.80 -16.75 -48 -0.15 -48 -0.10 -9.15 -55.15 c-5.05 -30.30 -9.15 -55.25 -9.15 -55.40 0.05 -0.20 6.35 -0.35 14 -0.40 l13.95 -0.10 0.30 1.40 c0.15 0.75 1.20 6.90 2.35 13.65 1.15 6.75 2.15 12.30 2.20 12.40 0.10 0.10 19.40 0.15 42.95 0.10 23.65 0 42.80 0.15 42.80 0.40 0 0.35 -6.75 11.35 -14.75 24 l-2 3.10 -32.45 0 -32.40 0 0.35 1.90 c0.20 1 1.30 7.35 2.45 14.10 l2.05 12.25 47.95 0.10 c26.35 0.05 47.95 0.15 48.05 0.25 0.05 0.10 3.55 20.75 7.70 45.90 4.15 25.15 7.70 46.25 7.80 46.85 l0.25 1.10 -13.80 0.15 c-8.75 0.10 -13.95 -0.05 -14.20 -0.35z"/>
  <path d="M91.30 58.95 c-7.45 -1.85 -15.45 -8.40 -18.90 -15.45 -5.35 -10.90 -4.25 -22.30 3.05 -32 3.60 -4.70 9.15 -8.55 14.45 -9.95 1.15 -0.35 2.10 -0.80 2.10 -1.05 0 -0.30 2.75 -0.50 6.75 -0.50 4 0 6.75 0.20 6.75 0.50 0 0.25 0.95 0.70 2.15 1.05 8.35 2.20 16.50 10.50 19.65 19.95 1.40 4.20 1.25 13.20 -0.25 17.50 -3.05 8.70 -10.15 16.10 -18.30 19.05 -2.35 0.85 -4.40 1.10 -9.25 1.25 -3.45 0.10 -7.15 -0.05 -8.20 -0.35z"/>
 </g>
</svg>